Coordinates
version=1
nRows=10
nColumns=40
inDegrees=yes

Units are S.I. units (second, meters, Newtons, ...)
Angles are in degrees.

endheader
time	pelvis_tilt	pelvis_list	pelvis_rotation	pelvis_tx	pelvis_ty	pelvis_tz	hip_flexion_r	hip_adduction_r	hip_rotation_r	knee_angle_r	knee_angle_r_beta	ankle_angle_r	subtalar_angle_r	mtp_angle_r	hip_flexion_l	hip_adduction_l	hip_rotation_l	knee_angle_l	knee_angle_l_beta	ankle_angle_l	subtalar_angle_l	mtp_angle_l	lumbar_extension	lumbar_bending	lumbar_rotation	arm_flex_r	arm_add_r	arm_rot_r	elbow_flex_r	pro_sup_r	wrist_flex_r	wrist_dev_r	arm_flex_l	arm_add_l	arm_rot_l	elbow_flex_l	pro_sup_l	wrist_flex_l	wrist_dev_l
     34.53000000	     -2.84828179	     -4.31444413	      0.83970002	      0.96473381	      0.92195932	      0.43763597	     18.96695950	     -8.24619468	     -8.77104697	     61.69471154	     61.69471154	      3.79802287	    -19.49968746	     16.93376534	     17.32764277	     -1.87187256	     -2.91964945	     29.93597672	     29.93597672	     18.46129651	    -17.35140986	      8.78764794	    -10.84873205	      6.52570403	      2.16677083	     30.41707069	    -14.97558583	     -9.76871952	     39.42857562	     45.42958574	      0.00000000	      0.00000000	     14.08551581	    -16.44240232	     11.25641705	     46.56614683	     46.10318503	      0.00000000	      0.00000000
     34.54928571	     -2.51694102	     -4.24987499	      0.26463333	      0.96364068	      0.92023722	      0.43619553	     19.92238482	     -8.19783449	     -8.26908268	     62.93689795	     62.93689795	      4.83673026	    -19.51410460	     16.61681612	     16.97827061	     -1.79344292	     -3.26284445	     30.76701372	     30.76701372	     19.12927075	    -17.72737921	      8.52146130	    -11.22702001	      6.79462394	      1.62341188	     27.31289064	    -14.28605414	     -9.65574302	     37.99585668	     45.46025914	      0.00000000	      0.00000000	     14.97370035	    -16.70517311	     11.03099563	     46.97926632	     46.13991382	      0.00000000	      0.00000000
     34.56857143	     -2.42266278	     -4.22656171	     -0.39901727	      0.96231793	      0.91826971	      0.43499849	     21.27483944	     -7.99109414	     -7.65105006	     64.16759655	     64.16759655	      6.41207753	    -19.52011129	     18.30586856	     16.95752061	     -1.81822675	     -3.79513036	     31.76542107	     31.76542107	     20.25372096	    -17.81632909	      9.20542360	    -11.30127782	      7.05013810	      2.02253083	     24.46810373	    -14.29201329	     -9.68023435	     34.07668165	     45.62848455	      0.00000000	      0.00000000	     16.50458772	    -16.37173392	     10.77859710	     47.24378589	     46.21133002	      0.00000000	      0.00000000
     34.58785714	     -2.27498931	     -4.17998135	     -1.02022283	      0.96101432	      0.91672875	      0.43387454	     22.43937853	     -7.77898747	     -7.08547593	     64.91623465	     64.91623465	      7.35469798	    -19.51023978	     18.15356020	     16.71467805	     -1.78512829	     -4.21254490	     32.43977898	     32.43977898	     20.93306181	    -17.97002208	      9.07337523	    -11.53519917	      7.32419299	      1.93540121	     21.24406606	    -14.03600588	     -9.66072569	     32.08625142	     45.69083645	      0.00000000	      0.00000000	     17.68325558	    -16.43536268	     10.45339394	     47.93559930	     46.26623084	      0.00000000	      0.00000000
     34.60714286	     -2.10192956	     -4.18970160	     -1.67322731	      0.95981316	      0.91586397	      0.43313490	     23.45512752	     -7.43922118	     -6.59357624	     65.14038875	     65.14038875	      8.26950925	    -19.48757580	     18.19384395	     16.26632429	     -1.83550968	     -4.72230440	     32.79153685	     32.79153685	     21.54465602	    -18.06963953	      9.16665558	    -11.84263825	      7.62695817	      2.05770002	     18.05318499	    -13.86087752	     -9.67557883	     29.78684060	     45.77160386	      0.00000000	      0.00000000	     18.97329284	    -16.44237768	     10.09349133	     48.58127236	     46.32553980	      0.00000000	      0.00000000
     34.62642857	     -1.97686825	     -4.20731602	     -2.32309194	      0.95858616	      0.91554509	      0.43269787	     24.43563320	     -7.03002948	     -6.12278913	     64.84707219	     64.84707219	      9.05347898	    -19.46083724	     18.12852669	     15.71306496	     -1.88649194	     -5.22305730	     32.82989939	     32.82989939	     22.05272314	    -18.13118419	      9.31671844	    -12.05958661	      7.95218551	      2.04074941	     14.98571095	    -13.59890820	     -9.75040809	     27.63039371	     45.85408120	      0.00000000	      0.00000000	     20.26130074	    -16.56118107	      9.68667483	     49.17301976	     46.38659240	      0.00000000	      0.00000000
     34.64571429	     -1.93169623	     -4.24634094	     -2.98536617	      0.95732333	      0.91584346	      0.43269804	     25.37858676	     -6.53371927	     -5.69498693	     63.93742298	     63.93742298	      9.64251022	    -19.39979756	     17.86195538	     15.07297728	     -1.96860083	     -5.74001275	     32.52489279	     32.52489279	     22.37154049	    -18.15318956	      9.48159958	    -12.24160622	      8.26752196	      1.96885166	     11.96207092	    -13.32410300	     -9.87983989	     25.78683753	     45.92861439	      0.00000000	      0.00000000	     21.49091671	    -16.79119841	      9.21260781	     49.86311644	     46.45232796	      0.00000000	      0.00000000
     34.66500000	     -1.97459969	     -4.31539488	     -3.66249155	      0.95600312	      0.91673185	      0.43317452	     26.25988838	     -5.94549721	     -5.31930357	     62.36503307	     62.36503307	     10.02722392	    -19.30853785	     17.21804674	     14.37754247	     -2.10998979	     -6.31776435	     31.91551072	     31.91551072	     22.53921952	    -18.11026213	      9.61882806	    -12.37128868	      8.57659181	      1.89039070	      8.97760229	    -13.02711363	    -10.12922852	     24.23862431	     46.00496614	      0.00000000	      0.00000000	     22.68259108	    -17.12045342	      8.60660732	     50.69916596	     46.53016937	      0.00000000	      0.00000000
     34.68428571	     -2.10140484	     -4.39734649	     -4.35078156	      0.95464259	      0.91808514	      0.43403636	     26.99183633	     -5.37078996	     -5.09292507	     60.01356763	     60.01356763	      9.53692394	    -19.17751088	     14.14443302	     13.59824739	     -2.26871879	     -6.93052415	     30.95013803	     30.95013803	     22.38300348	    -18.04783421	      9.37074211	    -12.42953976	      8.91361947	      1.68258959	      5.96546828	    -12.63349787	    -11.38762716	     23.39104309	     46.18494904	      0.00000000	      0.00000000	     23.64571253	    -17.46258244	      7.24897753	     52.00985197	     46.68369727	      0.00000000	      0.00000000
     34.70357143	     -2.26359231	     -4.48768079	     -5.07801082	      0.95320487	      0.91992064	      0.43542477	     27.65728440	     -4.64526232	     -4.73531405	     57.15319242	     57.15319242	      9.57861273	    -18.90683771	     13.20699034	     12.71181958	     -2.45100640	     -7.59717220	     29.71933802	     29.71933802	     22.22438893	    -17.90037117	      9.44346016	    -12.49715845	      9.18715385	      1.64686663	      3.03810797	    -12.39751160	    -11.69749382	     22.49782534	     46.24007369	      0.00000000	      0.00000000	     24.79699962	    -17.99739362	      6.63312847	     53.22222428	     46.76212614	      0.00000000	      0.00000000
